<svg xmlns="http://www.w3.org/2000/svg" viewBox="0 0 32 32">
  <path fill="#004463" d="M16 7.5c-.3 0-.5-.2-.5-.5V4c0-.3.2-.5.5-.5s.5.2.5.5v3c0 .3-.2.5-.5.5z"/>
  <path fill="#d5e5f2" d="M9.5 11v-1c0-1.7 1.3-3 3-3h7c1.7 0 3 1.3 3 3v1c0 1.7-1.3 3-3 3h-7c-1.7 0-3-1.3-3-3z"/>
  <circle cx="19" cy="10.5" r="1.5" fill="#01a6ff"/>
  <path fill="#607d95" d="M26 18c1.4 0 2.5 1.1 2.5 2.5S27.4 23 26 23h-2.5v-5H26z"/>
  <circle cx="16" cy="3.5" r="1" fill="#ef4a4c"/>
  <path fill="#b0c4da" d="M11.5 11v-1c0-1.7 1.3-3 3-3h-2c-1.7 0-3 1.3-3 3v1c0 1.7 1.3 3 3 3h2c-1.7 0-3-1.3-3-3z"/>
  <circle cx="13" cy="10.5" r="1.5" fill="#01a6ff"/>
  <path fill="#006ef4" d="M12.5 10.5c0-.7.4-1.2 1-1.4-.2-.1-.3-.1-.5-.1-.8 0-1.5.7-1.5 1.5S12.2 12 13 12c.2 0 .3 0 .5-.1-.6-.2-1-.7-1-1.4zM18.5 10.5c0-.7.4-1.2 1-1.4-.2-.1-.3-.1-.5-.1-.8 0-1.5.7-1.5 1.5S18.2 12 19 12c.2 0 .3 0 .5-.1-.6-.2-1-.7-1-1.4z"/>
  <path fill="#607d95" d="M14.5 14h3v3h-3z" transform="rotate(90 16 15.5)"/>
  <path fill="#4b6c85" d="M14.5 14h3v1.5h-3zM6.5 28v-5H6c-.6 0-1.1-.2-1.5-.5V28M25.5 28v-5h.5c.6 0 1.1-.2 1.5-.5V28"/>
  <path fill="#607d95" d="M6 18c-1.4 0-2.5 1.1-2.5 2.5S4.6 23 6 23h2.5v-5H6z"/>
  <path fill="#40657c" d="M4.5 22.5V24c.4.3.9.5 1.5.5h.5V23H6c-.6 0-1.1-.2-1.5-.5zM27.5 22.5V24c-.4.3-.9.5-1.5.5h-.5V23h.5c.6 0 1.1-.2 1.5-.5z"/>
  <path fill="#4b6c85" d="M7 18v1.5c0 1.1-.9 2-2 2h-.5c-.3 0-.6-.1-.8-.2C4 22.3 4.9 23 6 23h2.5v-5H7zM25 18v1.5c0 1.1.9 2 2 2h.5c.3 0 .6-.1.8-.2-.3 1-1.2 1.7-2.3 1.7h-2.5v-5H25z"/>
  <path fill="#90cff1" d="M8.5 27v-9c0-.6.4-1 1-1h13c.6 0 1 .4 1 1v9c0 .6-.4 1-1 1h-13c-.6 0-1-.4-1-1z"/>
  <path fill="#70b7e6" d="M15.5 26c-2.2 0-4-1.8-4-4v-5h-2c-.6 0-1 .4-1 1v9c0 .6.4 1 1 1h13c.6 0 1-.4 1-1v-1h-8z"/>
  <path fill="#4b6c85" d="M7.5 30.5c-.3 0-.5-.2-.5-.5 0-.8-.7-1.5-1.5-1.5S4 29.2 4 30c0 .3-.2.5-.5.5S3 30.3 3 30c0-1.4 1.1-2.5 2.5-2.5S8 28.6 8 30c0 .3-.2.5-.5.5zM28.5 30.5c-.3 0-.5-.2-.5-.5 0-.8-.7-1.5-1.5-1.5S25 29.2 25 30c0 .3-.2.5-.5.5s-.5-.2-.5-.5c0-1.4 1.1-2.5 2.5-2.5S29 28.6 29 30c0 .3-.2.5-.5.5z"/>
  <path fill="#004463" d="M20 24.5c-.3 0-.5-.2-.5-.5v-4c0-.3.2-.5.5-.5s.5.2.5.5v4c0 .3-.2.5-.5.5z"/>
  <path fill="#004463" d="M21 20.5h-2c-.3 0-.5-.2-.5-.5s.2-.5.5-.5h2c.3 0 .5.2.5.5s-.2.5-.5.5zM12 22.5h-1c-.3 0-.5-.2-.5-.5v-2c0-.3.2-.5.5-.5h1c.8 0 1.5.7 1.5 1.5s-.7 1.5-1.5 1.5zm-.5-1h.5c.3 0 .5-.2.5-.5s-.2-.5-.5-.5h-.5v1z"/>
  <path fill="#004463" d="M12 24.5h-1c-.3 0-.5-.2-.5-.5v-2c0-.3.2-.5.5-.5h1c.8 0 1.5.7 1.5 1.5s-.7 1.5-1.5 1.5zm-.5-1h.5c.3 0 .5-.2.5-.5s-.2-.5-.5-.5h-.5v1zM16 24.5c-.8 0-1.5-.7-1.5-1.5v-2c0-.8.7-1.5 1.5-1.5s1.5.7 1.5 1.5v2c0 .8-.7 1.5-1.5 1.5zm0-4c-.3 0-.5.2-.5.5v2c0 .3.2.5.5.5s.5-.2.5-.5v-2c0-.3-.2-.5-.5-.5z"/>
</svg>
