<svg xmlns="http://www.w3.org/2000/svg">
  <defs>
    <g id="ballon">
      <path fill-rule="nonzero" d="M46 185c-23,-19 -33,-45 -33,-72 0,-54 43,-97 97,-97 53,0 96,43 96,97 0,53 -43,96 -96,96 -11,0 -29,-5 -39,-8l-28 18 3 -34z"/>
      <rect x="196" y="49" width="28.7706" height="4.07962" rx="1" ry="1"/>
      <rect transform="matrix(0.806758 -0.590882 0.590882 0.806758 188.121 35.281)" width="28.7706" height="4.07962" rx="1" ry="1"/>
      <rect transform="matrix(0.416986 -0.908913 0.908913 0.416986 174.096 25.7388)" width="28.7706" height="4.07962" rx="1" ry="1"/>
    </g>
    <g id="guy">
      <circle fill="#495057" cx="68" cy="251" r="14"/>
      <polygon fill="#495057" points="0,271 5,271 79,271 79,276 5,276 5,356 0,356 0,276 "/>
      <polygon fill="#495057" points="52,267 19,267 5,236 3,237 17,267 17,267 17,270 52,270 "/>
      <polygon fill="#FEFEFE" points="98,65 121,65 118,132 102,132 "/>
      <rect fill="#FEFEFE" x="98" y="142" width="22.395" height="22.9747" rx="1" ry="1"/>
      <rect fill="#495057" x="148" y="317" width="1.89145" height="24.8263" rx="0" ry="1"/>
      <rect fill="#495057" transform="matrix(0.208737 -0.420242 1.11126 0.551967 149.067 329.465)" width="4.50905" height="23.1884" rx="1" ry="1"/>
      <rect fill="#495057" transform="matrix(-0.208737 -0.420242 -1.11126 0.551967 149.867 329.551)" width="4.50905" height="23.1884" rx="1" ry="1"/>
      <circle fill="#495057" cx="124" cy="351" r="5"/>
      <circle fill="#495057" cx="149" cy="351" r="5"/>
      <circle fill="#495057" cx="175" cy="351" r="5"/>
      <path fill="#495057" d="M120 313l0 -2c0,-3 2,-5 5,-5l30 0c6,0 13,-5 13,-18l0 -37c0,-3 2,-5 5,-5l2 0c3,0 5,2 5,5l0 45c0,18 -18,23 -23,23l-32 0c-3,0 -5,-3 -5,-6z"/>
      <path fill="#495057" d="M154 301l-38 0 0 50c0,3 -3,6 -6,6l-2 0c-3,0 -6,-3 -6,-6 0,-21 0,-42 0,-63 0,-3 3,-6 6,-6 8,0 16,0 25,0 -6,-10 -12,-20 -18,-20l-19 -1 0 43c0,2 -2,4 -4,4l-2 0c-2,0 -4,-2 -4,-4l0 -55c0,-7 10,-14 17,-14 25,0 64,26 60,57 -1,4 -4,9 -9,9z"/>
    </g>
  </defs>
  <symbol id="404" viewBox="0 0 225 357">
    <use href="#ballon" fill="#F8981F"/>
    <use href="#guy"/>
  </symbol>
  <symbol id="500" viewBox="0 0 225 357">
    <use href="#ballon" fill="#E95644"/>
    <use href="#guy"/>
  </symbol>
</svg>
