<svg xmlns="http://www.w3.org/2000/svg">
  <symbol id="bot" viewBox="0 0 32 32">
    <path fill="#004463" d="M16 7.5c-.3 0-.5-.2-.5-.5V4c0-.3.2-.5.5-.5s.5.2.5.5v3c0 .3-.2.5-.5.5z"/>
    <path fill="#d5e5f2" d="M9.5 11v-1c0-1.7 1.3-3 3-3h7c1.7 0 3 1.3 3 3v1c0 1.7-1.3 3-3 3h-7c-1.7 0-3-1.3-3-3z"/>
    <circle cx="19" cy="10.5" r="1.5" fill="#01a6ff"/>
    <path fill="#607d95" d="M26 18c1.4 0 2.5 1.1 2.5 2.5S27.4 23 26 23h-2.5v-5H26z"/>
    <circle cx="16" cy="3.5" r="1" fill="#ef4a4c"/>
    <path fill="#b0c4da" d="M11.5 11v-1c0-1.7 1.3-3 3-3h-2c-1.7 0-3 1.3-3 3v1c0 1.7 1.3 3 3 3h2c-1.7 0-3-1.3-3-3z"/>
    <circle cx="13" cy="10.5" r="1.5" fill="#01a6ff"/>
    <path fill="#006ef4" d="M12.5 10.5c0-.7.4-1.2 1-1.4-.2-.1-.3-.1-.5-.1-.8 0-1.5.7-1.5 1.5S12.2 12 13 12c.2 0 .3 0 .5-.1-.6-.2-1-.7-1-1.4zM18.5 10.5c0-.7.4-1.2 1-1.4-.2-.1-.3-.1-.5-.1-.8 0-1.5.7-1.5 1.5S18.2 12 19 12c.2 0 .3 0 .5-.1-.6-.2-1-.7-1-1.4z"/>
    <path fill="#607d95" d="M14.5 14h3v3h-3z" transform="rotate(90 16 15.5)"/>
    <path fill="#4b6c85" d="M14.5 14h3v1.5h-3zM6.5 28v-5H6c-.6 0-1.1-.2-1.5-.5V28M25.5 28v-5h.5c.6 0 1.1-.2 1.5-.5V28"/>
    <path fill="#607d95" d="M6 18c-1.4 0-2.5 1.1-2.5 2.5S4.6 23 6 23h2.5v-5H6z"/>
    <path fill="#40657c" d="M4.5 22.5V24c.4.3.9.5 1.5.5h.5V23H6c-.6 0-1.1-.2-1.5-.5zM27.5 22.5V24c-.4.3-.9.5-1.5.5h-.5V23h.5c.6 0 1.1-.2 1.5-.5z"/>
    <path fill="#4b6c85" d="M7 18v1.5c0 1.1-.9 2-2 2h-.5c-.3 0-.6-.1-.8-.2C4 22.3 4.9 23 6 23h2.5v-5H7zM25 18v1.5c0 1.1.9 2 2 2h.5c.3 0 .6-.1.8-.2-.3 1-1.2 1.7-2.3 1.7h-2.5v-5H25z"/>
    <path fill="#90cff1" d="M8.5 27v-9c0-.6.4-1 1-1h13c.6 0 1 .4 1 1v9c0 .6-.4 1-1 1h-13c-.6 0-1-.4-1-1z"/>
    <path fill="#70b7e6" d="M15.5 26c-2.2 0-4-1.8-4-4v-5h-2c-.6 0-1 .4-1 1v9c0 .6.4 1 1 1h13c.6 0 1-.4 1-1v-1h-8z"/>
    <path fill="#4b6c85" d="M7.5 30.5c-.3 0-.5-.2-.5-.5 0-.8-.7-1.5-1.5-1.5S4 29.2 4 30c0 .3-.2.5-.5.5S3 30.3 3 30c0-1.4 1.1-2.5 2.5-2.5S8 28.6 8 30c0 .3-.2.5-.5.5zM28.5 30.5c-.3 0-.5-.2-.5-.5 0-.8-.7-1.5-1.5-1.5S25 29.2 25 30c0 .3-.2.5-.5.5s-.5-.2-.5-.5c0-1.4 1.1-2.5 2.5-2.5S29 28.6 29 30c0 .3-.2.5-.5.5z"/>
    <path fill="#004463" d="M20 24.5c-.3 0-.5-.2-.5-.5v-4c0-.3.2-.5.5-.5s.5.2.5.5v4c0 .3-.2.5-.5.5z"/>
    <path fill="#004463" d="M21 20.5h-2c-.3 0-.5-.2-.5-.5s.2-.5.5-.5h2c.3 0 .5.2.5.5s-.2.5-.5.5zM12 22.5h-1c-.3 0-.5-.2-.5-.5v-2c0-.3.2-.5.5-.5h1c.8 0 1.5.7 1.5 1.5s-.7 1.5-1.5 1.5zm-.5-1h.5c.3 0 .5-.2.5-.5s-.2-.5-.5-.5h-.5v1z"/>
    <path fill="#004463" d="M12 24.5h-1c-.3 0-.5-.2-.5-.5v-2c0-.3.2-.5.5-.5h1c.8 0 1.5.7 1.5 1.5s-.7 1.5-1.5 1.5zm-.5-1h.5c.3 0 .5-.2.5-.5s-.2-.5-.5-.5h-.5v1zM16 24.5c-.8 0-1.5-.7-1.5-1.5v-2c0-.8.7-1.5 1.5-1.5s1.5.7 1.5 1.5v2c0 .8-.7 1.5-1.5 1.5zm0-4c-.3 0-.5.2-.5.5v2c0 .3.2.5.5.5s.5-.2.5-.5v-2c0-.3-.2-.5-.5-.5z"/>
  </symbol>
  <symbol id="jane" viewBox="0 0 111.062 111.062" style="enable-background:new 0 0 111.062 111.062;">
    <path style="fill-rule:evenodd;clip-rule:evenodd;fill:#A2400F;" d="M56.267,93.297c-30.868,0.618-34.319-35.798-33.202-53.786 C25.149,5.979,55.581-7.469,68.006,4.046c13.208,0,19.396,16.403,20.889,35.143C90.881,64.13,81.689,92.788,56.267,93.297z"/>
    <path style="fill-rule:evenodd;clip-rule:evenodd;fill:#FFDECC;" d="M65.201,70.617c-0.198,0.312-19.746,0.623-19.962,0.932 C39.1,80.307,25.834,84.144,15.288,86.502c-10.497,2.347-10.902,15.68-10.919,24.56h102.325c-0.016-8.88-0.211-22.165-10.919-24.56 C85.066,84.108,71.024,79.774,65.201,70.617z"/>
    <path style="fill-rule:evenodd;clip-rule:evenodd;fill:#FFDECC;" d="M65.784,51.913V77.03c-5.639,7.411-14.865,7.155-20.504,0 V51.913C45.28,38.35,65.784,38.35,65.784,51.913z"/>
    <path style="fill-rule:evenodd;clip-rule:evenodd;fill:#F7C5AA;" d="M65.784,51.913v16.816c-3.88,3.035-7.619,4.735-10.252,4.735 c-2.633,0-6.373-1.7-10.252-4.735V51.913C45.28,38.35,65.784,38.35,65.784,51.913z"/>
    <path style="fill-rule:evenodd;clip-rule:evenodd;fill:#FFDECC;" d="M55.532,69.287c-6.675,0-20.775-10.494-25.135-25.524 C25.996,28.587,34.285,6.819,55.532,6.819c21.246,0,29.536,21.767,25.135,36.944C76.306,58.793,62.206,69.287,55.532,69.287z"/>
    <path style="fill-rule:evenodd;clip-rule:evenodd;fill:#FF386A;" d="M47.491,54.156c3.402-3.293,6.055-0.823,8.041-0.823 c1.986,0,4.639-2.47,8.04,0.823C61.745,62.84,49.915,63.107,47.491,54.156z"/>
    <path style="fill-rule:evenodd;clip-rule:evenodd;fill:#FFFFFF;" d="M48.536,54.605c1.859-0.476,11.329-0.572,13.992-0.104 C60.329,58.55,50.396,58.316,48.536,54.605z"/>
    <path style="fill-rule:evenodd;clip-rule:evenodd;fill:#FF386A;" d="M47.491,54.156c3.401-3.293,6.055-0.823,8.041-0.823 c1.986,0,4.639-2.47,8.04,0.823C58.371,56.718,50.992,55.521,47.491,54.156z"/>
    <ellipse transform="matrix(-0.3946 -0.9189 0.9189 -0.3946 2.595 84.3666)" style="fill-rule:evenodd;clip-rule:evenodd;fill:#FFDECC;" cx="29.091" cy="41.328" rx="7.317" ry="4.231"/>
    <ellipse transform="matrix(0.3946 -0.9188 0.9188 0.3946 12.0079 100.8824)" style="fill-rule:evenodd;clip-rule:evenodd;fill:#FFDECC;" cx="82.563" cy="41.328" rx="7.316" ry="4.232"/>
    <path style="fill-rule:evenodd;clip-rule:evenodd;fill:#A2400F;" d="M82.695,43.492C90.763,8.908,66.412,3.026,52.204,3.026 c-16.001,0-28.063,18.991-25.364,41.108c8.536-5.146,16.057-15.31,34.717-31.891c-2.714,4.866-8.006,13.719-25.99,29.765 c9.679,1.599,27.708-10.601,37.317-23.367C75.178,27.717,78.479,37.651,82.695,43.492z"/>
    <path style="fill-rule:evenodd;clip-rule:evenodd;fill:#68C497;" d="M33.648,80.635c-5.839,2.8-12.517,4.562-18.36,5.868 c-10.497,2.347-10.902,15.68-10.919,24.56h102.325c-0.016-8.88-0.211-22.165-10.919-24.56c-5.737-1.282-12.429-3.123-18.303-5.962 l-0.014,0.022c-8.805,14.645-16.858,22.625-21.927,25.444C50.471,103.192,42.436,95.234,33.648,80.635z"/>
    <path style="fill-rule:evenodd;clip-rule:evenodd;fill:#3C8A64;" d="M22.677,111.062c0.063-2.012,0.246-4.434,0.732-7.387 c-0.906,2.879-1.549,5.289-2.001,7.387H22.677z"/>
    <path style="fill-rule:evenodd;clip-rule:evenodd;fill:#3C8A64;" d="M88.385,111.062c-0.063-2.012-0.246-4.434-0.731-7.387 c0.906,2.879,1.549,5.289,2.001,7.387H88.385z"/>
    <path style="fill-rule:evenodd;clip-rule:evenodd;fill:none;stroke:#FFFFFF;stroke-width:1.1999;stroke-miterlimit:22.9256;stroke-dasharray:2.3998,3.5997;" d="M31.791,81.4c4.768,9.775,14.619,23.092,23.739,27.47 M79.27,81.4c-4.768,9.775-14.618,23.092-23.739,27.47"/>
  </symbol>
  <symbol id="john" viewBox="0 0 318.965 318.965" style="enable-background:new 0 0 318.965 318.965;">
    <path style="fill:#636358;" d="M303.673,253.518c-11.151-37.754-67.121-33.566-91.279-44.408 c-24.157-10.842-20.386-47.219-23.449-53.548h-58.932c-3.058,6.329,0.714,42.711-23.449,53.548 c-24.157,10.842-80.133,6.655-91.279,44.408c-6.149,20.824-5.857,27.193-7.554,50.26c0,0,76.8,15.187,150.014,15.187 s153.488-15.187,153.488-15.187C309.53,280.705,309.822,274.342,303.673,253.518z"/>
    <path style="fill:#515147;" d="M303.673,253.518c-11.151-37.754-67.121-33.566-91.279-44.408 c-24.157-10.842-20.386-47.219-23.449-53.548H157.74c0,0-0.719,51.024,23.438,61.866s80.133,6.655,91.279,44.408 c5.857,19.83,5.868,26.552,7.324,47.073c19.234-2.816,31.442-5.126,31.442-5.126C309.53,280.705,309.822,274.342,303.673,253.518z"/>
    <path style="fill:#EAEAE1;" d="M174.748,318.7c10.348-26.67,24.163-73.95,26.366-119.466h-83.427 c2.203,45.572,16.058,92.909,26.423,119.562c4.541,0.112,9.094,0.169,13.636,0.169 C163.383,318.964,169.065,318.863,174.748,318.7z"/>
    <polygon style="fill:#C6C5AF;" points="196.91,216.225 176.108,236.122 171.19,205.743"/>
    <polygon style="fill:#C6C5AF;" points="121.009,216.225 142.817,236.122 146.796,205.518"/>
    <polygon style="fill:#C6C5AF;" points="172.005,205.518 146.796,205.518 144.885,211.7 173.961,211.869"/>
    <polygon style="fill:#AAA88F;" points="146.796,205.518 144.885,211.7 145.987,212.42"/>
    <polygon style="fill:#AAA88F;" points="173.961,211.869 171.19,205.743 172.331,212.802"/>
    <path style="fill:#4C4C4C;" d="M173.433,318.739l0.579-7.987l-6.081-80.51h-16.024l-7.099,80.515l0.585,8.066 c4.12,0.084,8.24,0.141,12.354,0.141C162.95,318.964,168.188,318.88,173.433,318.739z"/>
    <polygon style="fill:#3A3A38;" points="151.967,230.597 167.93,230.237 168.256,234.734"/>
    <polygon style="fill:#4C4C4C;" points="140.541,208.182 178.255,208.159 176.108,221.031 167.593,230.597 151.967,230.597 142.693,221.031"/>
    <path style="fill:#EAEAE1;" d="M146.796,205.518l-25.72-13.984c0,0-3.389,4.817-11.843,16.21l31.723,22.853l2.704-14.923 L146.796,205.518z"/>
    <path style="fill:#EAEAE1;" d="M171.122,205.518l25.72-13.984c0,0,3.389,4.817,11.843,16.21l-31.723,22.853l-2.704-14.923 L171.122,205.518z"/>
    <path style="fill:#E0DBD3;" d="M196.842,191.534l-25.72,13.984l1.776,5.772c2.372,2.602,5.109,4.716,8.279,6.138 c2.799,1.253,6.02,2.31,9.549,3.249l17.947-12.927C200.232,196.351,196.842,191.534,196.842,191.534z"/>
    <path style="fill:#515147;" d="M233.292,250.73l-15.333-5.559l13.776-3.794l-13.13-29.969l-40.749,107.208 c4.778-0.163,9.549-0.377,14.293-0.635L233.292,250.73z"/>
    <path style="fill:#515147;" d="M86.189,241.372l13.776,3.794l-15.333,5.559l41.216,67.369c4.716,0.247,9.471,0.444,14.237,0.59 L99.24,211.734L86.189,241.372z"/>
    <path style="fill:#72726A;" d="M228.981,251.562l-14.833-6.239l13.461-4.783l-9.004-29.137l-16.907-13.147l-32.111,120.579 c6.97-0.146,13.962-0.41,20.903-0.776L228.981,251.562z"/>
    <path style="fill:#636358;" d="M201.693,198.256l-6.278,23.567c8.538,1.945,18.385,3.507,28.171,5.711l-4.985-16.131 L201.693,198.256z"/>
    <path style="fill:#72726A;" d="M99.235,211.74l-8.926,28.806l13.461,4.783l-14.833,6.239l38.563,66.621 c6.902,0.343,13.877,0.585,20.847,0.703L116.22,198.267L99.235,211.74z"/>
    <ellipse transform="matrix(-0.177 0.9842 -0.9842 -0.177 385.6561 -85.3711)" style="fill:#CCA483;" cx="228.522" cy="118.558" rx="21.386" ry="11.629"/>
    <ellipse transform="matrix(-0.9842 0.177 -0.177 -0.9842 200.0903 219.2807)" style="fill:#DBB491;" cx="90.265" cy="118.565" rx="11.629" ry="21.386"/>
    <path style="fill:#DBB491;" d="M223.641,47.365H159.42H95.233c0,0-35.989,146.614,64.187,160.806 C259.636,193.979,223.641,47.365,223.641,47.365z"/>
    <path style="fill:#CCA483;" d="M159.42,208.171c100.216-14.192,64.221-160.806,64.221-160.806h-15.024 c4.114,61.242,9.808,93.774-13.815,129.24C176.085,204.708,159.42,208.171,159.42,208.171z"/>
    <path style="fill:#393C3D;" d="M187.838,5.48c0,0-19.824-9.33-46.477-3.642c-19.953,4.26-52.423,17.829-59.73,46.893 c0,0-10.932,47.483,7.683,67.931c0,0-0.916-18.548,0.956-33.313c0,0,11.174,4.946,33.69,4.659 c30.188-0.382,59.444-12.776,68.442-26.355c0,0-1.034,19.532-10.876,27.502c0,0,34.522-5.396,44.729-25.883 c0,0,3.417,17.935,3.417,51.159c0,0,5.39-7.509,6.649-19.605c2.855-27.44-2.333-65.334-22.876-64.069 C213.446,30.756,204.745,13.49,187.838,5.48z"/>
    <path style="fill:#CCA483;" d="M181.526,89.154c9.836-7.976,10.876-27.502,10.876-27.502 c-8.999,13.574-38.248,25.967-68.442,26.355c-21.763,0.275-32.931-4.333-33.651-4.643c1.433,0.613,44.156,18.554,91.672-3.884 c0,0-2.58,9.527-8.139,12.804c0,0,43.869-0.793,52.418-29.008C216.054,83.758,181.526,89.154,181.526,89.154z"/>
  </symbol>
</svg>
